<?xml version="1.0" encoding="UTF-8"?>
<!DOCTYPE svg PUBLIC "-//W3C//DTD SVG 1.1//EN" "http://www.w3.org/Graphics/SVG/1.1/DTD/svg11.dtd">
<!-- Creator: CorelDRAW 2018 -->
<svg xmlns="http://www.w3.org/2000/svg" xml:space="preserve" width="202mm" height="133mm" version="1.1" style="shape-rendering:geometricPrecision; text-rendering:geometricPrecision; image-rendering:optimizeQuality; fill-rule:evenodd; clip-rule:evenodd"
viewBox="0 0 20200 13300"
 xmlns:xlink="http://www.w3.org/1999/xlink">
 <defs>
  <style type="text/css">
   <![CDATA[
    .fil0 {fill:#DA2D2A}
    .fil1 {fill:black;fill-rule:nonzero}
   ]]>
  </style>
 </defs>
 <g id="Layer_x0020_1">
  <metadata id="CorelCorpID_0Corel-Layer"/>
  <g id="_707227360">
   <path class="fil0" d="M256.56 2782.47c64.99,-69.82 130.26,-144.5 198.03,-217.15 120.15,-128.83 257.16,-261.02 380.33,-386.95 296.35,-302.96 1109.81,-65.15 2331.66,-23.15 0,0 616.72,-7.78 918.85,23.86 418.67,43.84 675.06,797.1 1217.66,849.26 678.85,65.25 1328.77,89.05 1812.4,-370.41 402.07,-381.99 699.86,-635.9 1144.23,-912.98 610.17,-380.38 2046.82,188.41 2645.93,443.34 317.64,126.47 1429.88,612.28 1707.33,630.16 503.28,32.46 820.08,-180.75 1192.41,-431.17 300.33,-202.01 300.52,-647.95 632.45,-827.37 472.71,-255.53 964.72,-99.97 1448.6,0 753.6,149.4 985.09,250.14 1653.69,52.91 64.7,-19.09 205.05,19.84 205.05,19.84 0,0 -152.13,191.83 -251.35,251.36 -364.18,218.5 -1448.07,21.49 -1640.43,125.68 -389.88,211.19 -1678.52,1592.18 -2233.73,2084.2 -202.81,179.74 -235.29,144.91 -544.4,144.91 -455.29,0 -1347.92,-429.94 -1719.8,-429.94 -207.03,0 -1313.26,-46.56 -1792.35,-22.39 -192.09,9.68 -893.84,279.84 -965.94,366.34 -33.08,39.69 -502.72,529.17 -502.72,529.17 0,0 -112.45,152.13 -72.76,191.82 39.69,39.69 132.3,52.92 218.29,39.69 85.99,-13.23 651.54,-84.89 760.68,-99.22 109.14,-14.33 436.56,-57.33 654.84,-85.99 586.18,128.22 601.61,125.8 1144.33,456.41 0,0 85.99,-46.3 383.65,26.46 442.9,108.26 1994.63,689.39 2262.2,648.23 171.97,-26.46 509.31,-33.07 800.36,-33.07 713.64,0 1622.89,-522.56 2057.15,-522.56 1062.31,0 827.78,211.95 1587.5,443.18 304.28,92.61 621.78,145.52 621.78,145.52 0,0 -7.94,160.89 -244.74,277.81 -1138.24,562 -1796,176.72 -2619.39,780.53 -532.05,390.16 -1353.64,640.15 -1997.61,747.45 -238.12,39.67 -1111.26,211.65 -1362.61,231.5 -623.1,49.2 -1113.81,-277.81 -1673.5,-277.81 -378.08,0 -803.21,112.77 -1212.18,244.28 -876.45,281.86 -1377.15,327.26 -2267.1,509.79 -613.68,125.87 -668.89,353.89 -1308.58,211.87 -464.15,-103.06 -1098.61,-330.38 -1178.52,-602.13 -172.36,-586.09 -629.06,-646.6 -1289.39,-683.64 -188.13,-10.54 -616.6,-69.9 -710.88,118.43 -177.12,353.73 -780.21,37.61 -1075.52,234.48 -590.57,393.7 -273.01,254.68 -595.32,853.28 -257.44,478.12 -462.6,-274.1 -549.01,-562.24 -19.84,-66.15 -250.25,-136.7 -244.74,-291.04 5.51,-154.34 22.05,-617.37 33.07,-926.05 0,0 -37.52,-851.31 -56.03,-1294.49 -6.07,-145.38 -34.91,-362.74 -36.57,-375.7 -56.22,-438.49 -57.27,-669.8 81.3,-1152.04 51.39,-178.83 104.97,-402.72 92.33,-470.18 -20.99,-111.93 -29.51,-422.8 -104.74,-495.45 -89.22,-86.16 -71.66,-43.08 63.81,-188.64z"/>
   <path class="fil1" d="M139.03 13195.71c-5.99,-44.43 -11.14,-88.84 -10.02,-133.1 25.08,-993.12 55.29,-1986.12 78.67,-2979.28 10.84,-460.25 23.72,-921.11 -65.4,-1374.91 -62.28,-317.33 -42.56,-407.72 -40.95,-729.92 1.36,-271.41 7.22,-542.63 20.74,-813.52 21.53,-431.23 49.86,-736.51 47.49,-1164 -3.5,-627.91 34.9,-1254.33 71.17,-1881.9 64.61,-1117.83 88.31,-2238.04 129.05,-3357.25 0.83,-22.68 -2.98,-45.54 -5.05,-74.1 -56.66,-4.81 -110.24,-3.55 -160.36,-16.08 -71.53,-17.89 -68.71,-97.83 4.85,-109.66 50.91,-8.21 104.08,-2.44 164.61,-2.44 3.35,-71.15 1.21,-138.67 12.13,-204.01 13.9,-83.18 100.85,-79.41 110.49,0.94 7.95,66.48 2.59,134.55 2.59,212.54 62.73,4.11 124.29,2.13 182.85,14.42 96.83,20.34 87.46,96.74 -8.31,113.18 -53.95,9.25 -110.64,2.5 -177.5,2.5 -2.3,27.64 -6.09,58.24 -7.2,88.93 -38.32,1060.48 -74.9,2121.03 -115.65,3181.42 -9.14,237.8 -27.25,475.59 -50.88,712.43 -43.31,434.05 -47.44,868.96 -29.95,1303.7 15.9,395.15 -27.95,786.36 -51.29,1179.18 -10.72,180.44 -1.83,362.04 -1.83,553.23 329.01,-260.47 441.86,-320.46 820.8,-508.92 783.28,-389.53 1313.84,-379.28 2134.79,-395.44 484.08,-9.52 944.68,91.7 1385.55,287.7 219.7,97.66 579.94,441.12 803.44,600.02 269.67,191.73 568.13,334.24 888.25,419.05 347.63,92.08 709.89,65.58 1029.55,-93.31 330.15,-164.11 602.92,-404.36 858.5,-666.92 99.67,-102.4 211.81,-192.74 319.09,-287.65 297.23,-262.97 645.83,-337.04 1014.19,-337.99 258.58,-0.67 523.04,13.1 765.26,109.58 360.32,143.54 699.85,410.24 1030.34,614.43 134.99,83.41 274.37,159.91 414.08,235.49 172.04,93.1 672.59,169.78 840.54,109.09 489.47,-176.95 936.55,-436.96 1375.06,-712.06 435.47,-273.16 404.66,-422.39 1026.92,-582.83 391.86,-101.04 479.74,-139.63 849.17,-66.37 437.25,86.69 873.96,176.1 1311.71,260.16 243.95,46.85 487.84,114.58 740.14,49.11 202.48,-52.53 383.02,-147.3 483.52,-334.28 103.53,-192.61 181.26,-399.2 267.42,-600.9 12.77,-29.91 31.3,-121.1 29.96,-159.51 -11.83,15.47 -54.31,84.9 -65.1,101.05 -176.63,264.45 -435.94,371.74 -740.69,362.36 -473.63,-14.59 -874.44,-76.79 -1311.99,-265.99 -342,-147.89 -674.42,-317.91 -1011.39,-477.51 -127.15,-60.24 -362,-94.38 -503.9,-123.05 -248.04,-50.1 -465.22,24.71 -657.08,176.81 -332.83,263.83 -677.68,507.8 -1065.08,681.2 -419.65,187.88 -1419.37,209.11 -1849.26,-25.7 -458.45,-250.41 -878.21,-780.74 -1355.97,-942.92 -187.97,-63.84 -506.95,-129.89 -711.28,-120.15 -286.24,13.67 -739.99,80.61 -854.23,119.99 -38.82,13.38 -82.02,19.49 -116.02,40.54 -334.32,207.01 -709.49,272.43 -1090.18,320.91 -40.04,5.1 -82.98,13.62 -117.26,33.29 -201.87,115.85 -428.22,159.39 -650.94,173.26 -170.11,10.59 -348.04,0.54 -512.03,-58.63 -231.8,-83.59 -534.33,-302.04 -751.68,-434.13 -97.26,-60.58 -130.75,-202.31 53.52,-103.06 186.05,100.2 310.33,196.87 520.27,245.67 119.18,25.84 245.24,24 368.43,26.36 299.68,5.74 599.47,10.11 899.13,6.86 51.99,-0.57 114.48,-29.26 153.64,-65.13 407.37,-373.18 809.72,-751.83 1216.08,-1126.13 577.96,-532.37 1440.08,-618.13 2177.2,-418.87 376.8,101.86 758.62,180.19 1125.98,320.18 273.3,104.15 1014.97,210.36 1321.3,168.42 93.66,-12.84 207.21,-45.71 266.97,-110.92 208.94,-228.01 432.68,-438.19 659.98,-647.37 562.65,-517.76 812.52,-959.67 1518.53,-1423.54 280.29,-184.17 780.86,-171.44 1107.96,-132.59 333.49,39.61 642.55,-42.15 941.46,-171.63 183.29,-79.39 322.5,-209.47 366.33,-445.49 -40.85,47.45 -69.54,75.29 -91.86,107.55 -313.21,452.62 -979.3,393.49 -1447.26,277.67 -370.31,-91.66 -746,-164.76 -1122.48,-227.29 -293.26,-48.71 -583.16,-5.8 -842.04,147.48 -154.75,91.62 -283.16,218.52 -309.83,424.56 157.41,-91.94 311.13,-180.12 463.21,-271.07 118.53,-70.9 234.49,-146.08 352.67,-217.58 38.49,-23.29 86.24,-65.34 122.52,-8.62 35.69,55.81 -18.81,82.89 -58.35,107.6 -112.15,70.09 -221.83,144.95 -338.12,207.45 -366.51,197.01 -695.64,449.04 -1032.49,689.99 -554.39,396.6 -963.25,407.15 -1666.51,127.81 -608.71,-241.78 -1212.12,-497.11 -1814.74,-753.86 -650.87,-277.32 -1539.06,-340.08 -2219.52,-134.6 -312.9,94.48 -590.98,256.59 -803.21,515.68 -106.17,129.6 -220.07,252.93 -324.39,383.94 -130.6,164 -297.63,245.48 -505.49,265.52 -211.26,20.36 -421.66,54.12 -632.47,78.06 -755.62,85.78 -1000.35,-58.5 -1639.03,-435.09 -600.06,-353.74 -912.3,-414.29 -1608.2,-485.85 -302.21,-31.09 -997.05,42.39 -1320.45,65.19 -173.07,12.21 -311.24,107.37 -426.08,234.73 -34.8,38.59 -55.78,123.38 -121.77,80.81 -74.42,-48 -5.25,-108.46 27,-148.02 132.17,-162.09 303.12,-271.39 512.8,-286.36 447.58,-31.98 916.52,-72.25 1364.79,-57.95 609.23,19.43 1130.66,177.86 1651.63,506.75 566.28,357.48 896.31,488.06 1556.62,415.54 110.97,-12.18 220.44,-25.12 326.83,-64.71 115.55,-43 223.15,-119.55 319.58,-198.85 145.02,-119.27 279.81,-251.51 414,-383.28 222.41,-218.38 479.31,-376.86 778.54,-465.21 221.96,-65.54 444.56,-128.88 666.45,-194.61 639.54,-189.5 1599.21,7.91 2190.84,272.92 573.45,256.86 1158.22,489.64 1744.68,715.79 861.68,332.26 1226.15,-1.93 1559.21,-218.64 191.23,-124.43 298.35,-296.58 376.07,-492.42 99.65,-251.09 247.94,-321.03 465.07,-436.1 283.17,-150.12 585.83,-143.81 885.45,-87.63 427.01,80.06 848.17,191.67 1275.55,269.27 319.42,58 646.06,51.48 926.88,-136.67 116.74,-78.22 203.18,-209.74 285.72,-329.23 169.2,-244.97 171.52,-515.85 93.65,-793.48 -20.63,-73.55 -42.98,-147.19 -54.83,-222.32 -16.59,-105.14 93.46,-85.89 108.65,-28.9 61.02,229.19 131.18,455.5 107.21,700.61 -22.91,234.39 -38.65,465.78 -135.7,686.99 -71.98,164.06 -200.57,266.9 -347.24,333.93 -308.56,141.02 -630.27,232.86 -980.14,201.78 -450.45,-40.02 -744.98,-64.22 -1096.35,124.97 -571.63,307.84 -1016.61,934.79 -1480.53,1383.16 -209.34,202.38 -410.67,412.56 -622.16,612.76 -61.89,58.58 -135.09,111.12 -212.22,146.68 -1129.01,520.6 -1576.68,124.01 -2642.68,-301.17 -531.81,-212.11 -1196.81,-291.52 -1717.17,-16.84 -198.38,104.72 -366.35,252.27 -528.91,407.19 -295.64,281.74 -597.81,556.64 -897.21,834.46 -27.3,25.34 -54.23,51.07 -99.33,93.58 264.75,-25.88 497.49,-77.26 717.61,-175.12 96.12,-42.73 185.76,-100.61 276.69,-154.4 402.11,-237.9 841.13,-353.49 1303.38,-341.94 184.36,4.61 367.45,35.01 541.07,98.69 567.38,208.05 1073.46,899.01 1569.67,1050.21 316.77,96.5 633.4,193.55 966.75,231.7 212.34,24.3 398.14,-22.26 572.85,-122.73 303.82,-174.72 606.54,-351.97 876.85,-577.71 477.71,-398.85 881.8,-484.61 1474.18,-240.44 426.19,175.68 841.85,378.02 1272.38,541.66 320.38,121.78 661.96,158.92 1006.15,108.9 133.47,-19.4 265.21,-50.47 398.1,-74.2 75.98,-13.57 118.37,-59.94 138.62,-130.7 81.52,-285 161.51,-570.44 244.57,-854.99 61.69,-211.38 113.02,-427.5 196.69,-630.05 45.97,-111.27 138.26,-210.77 228.93,-294.79 231.99,-215.02 501.88,-210.34 780.28,-102.37 130.1,50.45 257.13,270.61 235.74,421.43 -20.31,143.12 -49.99,287.28 -191,368.54 -73.53,42.41 -137.05,19.73 -114.45,-70.93 61.11,-245.3 -46.93,-365.56 -233.8,-405.41 -269.56,-57.49 -561.35,71.29 -647.13,335.92 -83.82,258.56 -137.95,527.39 -194.17,794.02 -37.46,177.67 -65.59,358.59 -80.03,539.47 -16.63,208.38 -117.27,386.06 -181.47,577.15 -106.54,317.13 -319.41,556.42 -584.27,741.2 -164.52,114.77 -364.28,168.38 -574.07,174.38 -140.91,4.03 -277.25,-3.78 -411.51,-30.53 -362.8,-72.3 -925.93,-214.06 -1284.15,-325.68 -358.75,-111.77 -714.15,-77.15 -1070.28,3.3 -41.67,9.41 -80.83,34.28 -118.46,56.53 -394.58,233.45 -783.4,477.24 -1184.47,698.89 -310.45,171.56 -627.95,341.12 -984.69,396.06 -240.3,37 -481.38,32.9 -725.1,-20.35 -855.56,-186.92 -1233.57,-774.88 -2000.28,-915.56 -218.9,-40.17 -708.98,-11.86 -918.04,56.39 -120.03,39.19 -238.91,122.01 -325.39,215.8 -204.27,221.52 -425.61,421.29 -662.06,606.45 -252.22,197.5 -536.9,337.85 -848.1,390.86 -313.53,53.41 -907.8,4.04 -1223.71,-94.94 -497.08,-155.8 -823.97,-548.55 -1191.68,-877.04 -338.05,-302.09 -791.46,-390.24 -1225.37,-396.43 -448.87,-6.41 -814.98,-8.02 -1303.22,97.9 -673.15,146.05 -1069.95,389.41 -1598.94,775.69 -82.19,60.01 -100.61,90.98 -101.53,173.7 -4.46,400.65 -37.94,330.24 32.9,689.84 103.71,526.18 81.08,1060.13 65.13,1594.53 -28.23,946 -48.09,1892.25 -71.71,2838.39 -0.89,35.49 -2.39,70.97 -3.97,106.43 -5.4,121.04 -85.44,117.86 -103.58,-16.63zm12121.97 -7068.04c10.95,-0.18 138.41,3.2 59.3,-16.05 -13.51,-3.29 -31.08,-9.18 -56.72,-13.34 -148.32,-41.69 -297.91,-79.4 -444.69,-125.95 -824.26,-261.44 -1006.9,-1043.65 -2132.64,-1164.17 -204.66,-21.9 -402.29,33.04 -599.37,80.25 -45.49,10.89 -90.21,25 -135.29,37.63 108.86,5.86 214.06,-3.02 319.45,-8.26 274.07,-13.63 319.32,-1.21 584.31,53.37 79.77,16.42 159.14,34.55 237.03,59.49 254.79,81.59 707.82,410.24 891.96,590.93 248.24,243.6 533.77,433.29 887.2,486.66 127.88,19.31 259.53,13.69 389.46,19.44zm5660.52 743.66l40.93 -31.42c-10.7,3.72 -53.42,20.93 -63.05,23.47 -286.9,75.75 -565.09,3.83 -843.79,-51.02 -483.61,-95.2 -965.9,-197.37 -1450.5,-287.12 -194.12,-35.96 -378,41.58 -563.51,88.73 20.41,10.05 40.26,14.79 59.6,13.22 241.11,-19.5 472.75,27.3 702.42,94.56 364.44,106.73 851.29,237.55 1212.79,305.83 174.5,32.95 349.69,29.87 527.91,8.66 140.82,-16.76 263.27,-69.32 377.2,-164.91zm-8797.3 3.89l0 0c-71.17,22.95 -62.91,32.91 0.43,33.82 297.59,-33.35 586.72,0.95 866.23,102.51 360.43,130.91 667.47,408.46 1015.62,590.86 164.46,86.17 344.79,142.09 522.98,202.04 48.75,16.4 149.04,29.5 200.03,42.59 -131.7,-57.85 -316.51,-166.36 -446.85,-249.4 -387.46,-246.8 -867.22,-628.52 -1316.24,-714.95 -283.36,-54.55 -557.57,-24.01 -842.2,-7.47zm5974.2 -1722.01l0 0c35.84,7.92 71.35,17.94 107.56,23.42 191.02,28.88 366.64,95.43 534.45,192.69 141.82,82.19 291.54,152.09 441.94,217.88 510.73,223.4 1046.38,435 1615.05,411.19 164.24,-6.87 410.57,-39.43 536.94,-152.35 -77.99,14.78 -208.35,33.53 -280.05,46.64 -358.11,65.49 -711.75,22.72 -1052.92,-80.6 -257.06,-77.84 -501.23,-199.17 -749.43,-305.12 -218.67,-93.35 -433.54,-195.66 -652.82,-287.51 -158.29,-66.31 -324.56,-98.69 -500.72,-66.24zm-2251.14 -773c-39.4,0 -133.86,0.71 -172.7,-3.97 -212.12,-25.59 -427.77,-36.87 -634.93,-84.65 -233.54,-53.87 -457.79,-146.79 -689,-212.45 -202.65,-57.56 -408.74,-103.11 -613.57,-152.94 -12.28,-2.98 -114.73,-25.02 -127.02,-28.05 31.61,19.38 107.09,52.17 153.45,70.72 1059.64,424.06 936.38,552.23 1908.69,456.47 68.47,-6.73 108.77,-21.41 175.08,-45.13zm-8454.12 2761.76c21.74,20.91 52.34,43.67 77.2,66.5 304.6,280.69 604.17,567.67 959.3,785.53 189,115.95 401.38,150.76 617.9,196 -117.2,-51.62 -202.88,-94.92 -302.9,-142.93 -406.09,-194.94 -748.06,-482.08 -1093.99,-763.71 -45.97,-37.42 -91.38,-57.08 -141.6,-85.79 -36.49,-20.9 -77.56,-37.86 -115.91,-55.6zm15641.25 -2877.47c122.15,-296.72 -16.04,-426.76 -279.11,-507.73 -145.89,-44.92 -347.95,9.25 -478.47,114.08 -29.08,23.36 -63.73,57.93 -84.31,85.8 20.95,-11.92 83.72,-36.32 103.15,-43.06 257.28,-89.23 569.17,-45.13 699.22,216.29 19.16,38.55 27.64,92.53 39.52,134.62zm-12834.67 -2161.71l0 0c-340.5,209.82 -572.81,506.97 -875.14,750.89 121.35,-3.1 267.18,-51.88 326.3,-118.31 180.33,-202.63 355.92,-409.48 548.84,-632.58zm-362.56 3422.18l0 0c-302.05,-10.09 -580.62,-19.4 -859.19,-28.7 275.71,85.6 552.58,144.71 859.19,28.7z"/>
   <path class="fil1" d="M1757.11 5821.74c0,37.24 0,67.03 0,85.2 0,10.04 1.19,36.9 7.14,40.99 29.21,20.07 68.28,20.07 93.55,29.02 20.84,7.38 54.94,46.19 -2.32,57.3 -26.51,5.15 -52.9,3.3 -79.66,21.19 -6.29,12.33 -8.43,32.94 -12.24,27.91 -3.26,7.74 -5.7,15.97 -9.92,23.14 -19.92,33.79 -21.4,98.88 -60.55,100.89 -36.82,1.89 -32.51,-96.09 -51.32,-127.81 -9.89,-16.68 -23,-23.71 -39.79,-32.02 -39.91,-19.76 -30.26,-61.42 10.5,-82.18 25.66,-13.07 36.48,-62.69 30,-94.68 -4.27,-21.13 -18.46,-41.62 -47.89,-59.81 -17.58,-10.87 -37.35,-49.45 -30.8,-61.26 11.75,-21.2 42.16,-43.74 65.68,-44.76 111.48,-4.85 223.26,-2.69 334.94,-2.88 75.55,-0.13 151.11,-0.03 230.23,-0.03 0,-230.45 1.4,-450.12 -2.41,-669.69 -0.35,-19.62 -31.06,-46.92 -53.66,-56.49 -89.2,-37.75 -182.71,-65.74 -270.32,-106.58 -76.47,-35.64 -48.33,-130.13 42.12,-104.08 91.77,26.44 180.38,63.8 275.69,98.98 0,-308.6 0,-603.88 0,-908.2 -216.51,0 -431.71,9.77 -647.54,10.07 -53.5,0.08 -140.22,29.79 -144.26,-53.27 -4.13,-84.78 83.55,-61.88 137.15,-63.76 215.6,-7.59 433.13,-4.33 647.82,-18.91 0,-105.47 0,-206.35 0,-321.09 -48.99,0 -96.2,6.52 -140.23,-2.51 -72.21,-14.83 -72.84,-94.74 -1.31,-110.92 41.58,-9.4 86.84,-2.56 145.51,-2.56 0,-90.77 0.01,-174.46 -0.01,-258.15 0,-45.03 -1.32,-101.46 58.72,-94.72 22.78,2.56 52.02,61.51 55.71,97.1 8.34,80.6 2.62,162.65 2.62,254.56 43.96,0 77.82,-7.36 106.18,1.97 93.06,30.6 100.33,79.94 4.68,114.24 -28.3,10.15 -63.1,2.16 -101.12,2.16 0,106.75 0,205.34 0,318.5 213.06,0 426.83,-7.29 639.93,-11.57 23.45,-0.47 50.8,-6.53 69.43,3.22 50.24,26.3 76.45,89.4 2.99,107.27 -39.18,9.56 -81.47,7.96 -122.49,8.09 -193.33,0.63 -386.66,0.28 -592.67,0.28 0,53.45 -0.2,84.47 0.03,115.49 1.9,255.69 7.11,511.42 3.84,767.05 -0.97,75.88 24.68,112.16 95.31,130.4 50.84,13.12 101.96,31.78 146.92,58.23 63.9,37.59 27.9,117.95 -39.22,103.18 -62.11,-13.67 -121.44,-39.98 -191.5,-64.63 0,220.65 0,432.45 0,656.35 109.89,0 217.67,-0.03 325.47,0.01 123.43,0.05 246.94,-2.24 370.29,1.12 80.5,2.19 92.36,37.24 60.08,106.34 -21.68,46.41 -20.7,103.4 -29.86,155.66 9.11,-3.91 18.23,-7.82 27.35,-11.72 34.99,27.68 99.37,55.41 99.31,83.03 -0.13,74.62 -73.58,55.75 -122.77,61.74 -31.81,3.87 -64.9,6.83 -96.32,2.42 -70.34,-9.87 -75.12,-39.74 -47.13,-102.76 20.48,-46.12 20.26,-104.51 15.38,-156.12 -0.93,-9.81 -66.86,-18.96 -102.84,-19.12 -320.35,-1.46 -640.71,-0.83 -961.07,-0.82 -31.81,0 -63.63,0 -103.35,0z"/>
  </g>
 </g>
</svg>
